HIERARCHY
ROOT Hips
{
	OFFSET 0.00 0.00 0.00
	CHANNELS 6 Xposition Yposition Zposition Xrotation Yrotation Zrotation
	JOINT RightUpLeg
	{
		OFFSET -3.76699 0.00000 0.00000
		CHANNELS 3 Xrotation Yrotation Zrotation
		JOINT RightLeg
		{
			OFFSET 0.00000 -18.01768 0.00000
			CHANNELS 3 Xrotation Yrotation Zrotation
			JOINT RightFoot
			{
				OFFSET 0.00000 -16.88108 0.00000
				CHANNELS 3 Xrotation Yrotation Zrotation
				JOINT RightToeBase
				{
					OFFSET 0.00000 -1.49359 5.57418
					CHANNELS 3 Xrotation Yrotation Zrotation
					End Site
					{
						OFFSET 0.00000 0.00000 2.95275
					}
				}
			}
		}
	}
	JOINT LeftUpLeg
	{
		OFFSET 3.76699 0.00000 0.00000
		CHANNELS 3 Xrotation Yrotation Zrotation
		JOINT LeftLeg
		{
			OFFSET 0.00000 -18.01768 0.00000
			CHANNELS 3 Xrotation Yrotation Zrotation
			JOINT LeftFoot
			{
				OFFSET 0.00000 -16.88108 0.00000
				CHANNELS 3 Xrotation Yrotation Zrotation
				JOINT LeftToeBase
				{
					OFFSET 0.00000 -1.49359 5.57418
					CHANNELS 3 Xrotation Yrotation Zrotation
					End Site
					{
						OFFSET 0.00000 0.00000 2.95275
					}
				}
			}
		}
	}
	JOINT Spine
	{
		OFFSET 0.00000 7.77970 0.00000
		CHANNELS 3 Xrotation Yrotation Zrotation
		JOINT RightShoulder
		{
			OFFSET 0.00000 10.94176 0.00000
			CHANNELS 3 Xrotation Yrotation Zrotation
			JOINT RightArm
			{
				OFFSET -7.70894 0.00000 0.00000
				CHANNELS 3 Xrotation Yrotation Zrotation
				JOINT RightForeArm
				{
					OFFSET -11.52135 0.00000 0.00000
					CHANNELS 3 Yrotation Zrotation Xrotation
					JOINT RightHand
					{
						OFFSET -10.17590 0.00000 0.00000
						CHANNELS 3 Xrotation Yrotation Zrotation
						End Site
						{
							OFFSET -3.93700 0.00000 0.00000
						}
						JOINT RightHandThumb1
						{
							OFFSET 0.00000 0.00000 0.00000
							CHANNELS 3 Xrotation Zrotation Yrotation
							End Site
							{
								OFFSET 0.00000 0.00000 3.93700
							}
						}
					}
				}
			}
		}
		JOINT LeftShoulder
		{
			OFFSET 0.00000 10.94176 0.00000
			CHANNELS 3 Xrotation Yrotation Zrotation
			JOINT LeftArm
			{
				OFFSET 7.70894 0.00000 0.00000
				CHANNELS 3 Xrotation Yrotation Zrotation
				JOINT LeftForeArm
				{
					OFFSET 11.52135 0.00000 0.00000
					CHANNELS 3 Yrotation Zrotation Xrotation
					JOINT LeftHand
					{
						OFFSET 10.17590 0.00000 0.00000
						CHANNELS 3 Xrotation Yrotation Zrotation
						End Site
						{
							OFFSET 3.93700 0.00000 0.00000
						}
						JOINT LeftHandThumb1
						{
							OFFSET 0.00000 0.00000 0.00000
							CHANNELS 3 Xrotation Zrotation Yrotation
							End Site
							{
								OFFSET 0.00000 0.00000 3.93700
							}
						}
					}
				}
			}
		}
		JOINT Head
		{
			OFFSET 0.00000 16.64604 0.00000
			CHANNELS 3 Xrotation Yrotation Zrotation
			End Site
			{
				OFFSET 0.00000 4.52755 0.00000
			}
		}
	}
}
MOTION
Frames: 7
Frame Time: 0.008333
 2.9440 37.0271 3.2218 -4.7323 -1.1877 2.2723 12.4739 -8.3001 -5.3925 -5.3265 0.0000 -0.0000 -7.8810 -20.7462 10.3188 15.0366 -0.0000 0.0000 11.6437 1.7190 2.8310 -2.6978 0.0000 0.0000 -4.4697 15.9327 -13.9044 8.5645 0.0000 0.0000 7.4981 -5.4025 -3.4090 10.8245 -8.8244 -24.0659 -29.5377 -4.2570 30.8500 20.0801 0.0000 -6.1511 -0.1292 1.8002 4.1073 32.8623 0.0000 -24.3270 28.7664 29.9687 12.1181 -64.7931 4.3409 -37.6683 -9.5942 0.0000 39.3931 2.0107 20.0013 -5.8605 33.1476 -0.0000 26.2537 2.7085 11.8202 4.3797
 2.9406 37.0269 3.2203 -4.7418 -1.1875 2.2695 12.4796 -8.2921 -5.3862 -5.3189 -0.0000 -0.0000 -7.8873 -20.7457 10.3136 15.0341 -0.0000 0.0000 11.6439 1.7303 2.8392 -2.6838 -0.0000 -0.0000 -4.4729 15.9105 -13.8794 8.5267 -0.0000 0.0000 7.5135 -5.3968 -3.4107 10.8207 -8.8162 -24.0555 -29.5395 -4.2843 30.8531 20.0989 0.0000 -6.1522 -0.1277 1.7759 4.1151 32.8623 0.0000 -24.3270 28.7536 29.9752 12.1345 -64.7945 4.3470 -37.6785 -9.6065 0.0000 39.4006 2.0219 19.9956 -5.8945 33.1476 -0.0000 26.2537 2.7052 11.7679 4.3879
 2.9379 37.0271 3.2180 -4.7534 -1.1893 2.2640 12.4767 -8.2915 -5.3793 -5.2946 -0.0000 -0.0000 -7.9028 -20.7394 10.3087 15.0274 -0.0000 -0.0000 11.6431 1.7330 2.8482 -2.6653 0.0000 -0.0000 -4.4767 15.9246 -13.9293 8.5430 0.0000 0.0000 7.5383 -5.3961 -3.3994 10.8252 -8.8110 -24.0459 -29.5531 -4.3017 30.8485 20.1151 0.0000 -6.1414 -0.1296 1.7935 4.1339 32.8623 0.0000 -24.3270 28.7447 29.9716 12.1335 -64.8368 4.4078 -37.6783 -9.6472 0.0000 39.4667 2.0366 20.0155 -5.9315 33.1476 -0.0000 26.2537 2.6957 11.7578 4.3786
 2.9357 37.0269 3.2153 -4.7639 -1.1960 2.2601 12.4821 -8.2622 -5.3754 -5.2862 0.0000 -0.0000 -7.9135 -20.7469 10.2848 15.0117 0.0000 0.0000 11.6430 1.7470 2.8548 -2.6537 -0.0000 0.0000 -4.4899 15.9108 -13.9049 8.5416 -0.0000 -0.0000 7.5679 -5.3882 -3.3916 10.8138 -8.8168 -24.0447 -29.5720 -4.3073 30.8640 20.1130 0.0000 -6.1209 -0.1294 1.7926 4.1282 32.8623 0.0000 -24.3270 28.7262 29.9712 12.1343 -64.8224 4.3949 -37.6769 -9.6336 0.0000 39.4284 2.0225 19.9788 -5.9010 33.1476 -0.0000 26.2537 2.6595 11.7641 4.3883
 2.9327 37.0268 3.2133 -4.7747 -1.2015 2.2560 12.4804 -8.2758 -5.3665 -5.2691 0.0000 0.0000 -7.9195 -20.7304 10.2652 15.0321 -0.0000 0.0000 11.6412 1.7503 2.8633 -2.6330 -0.0000 0.0000 -4.4917 15.9025 -13.8931 8.5127 -0.0000 0.0000 7.5932 -5.3835 -3.3856 10.8115 -8.8117 -24.0368 -29.5968 -4.3308 30.8701 20.1232 0.0000 -6.0824 -0.1291 1.7854 4.1361 32.8623 0.0000 -24.3270 28.7197 29.9739 12.1298 -64.8395 4.4113 -37.6787 -9.6383 0.0000 39.4705 1.9674 20.0068 -5.7335 33.1476 -0.0000 26.2537 2.6369 11.7560 4.3933
 2.9302 37.0268 3.2105 -4.7856 -1.2045 2.2491 12.4881 -8.2636 -5.3581 -5.2690 -0.0000 -0.0000 -7.9159 -20.7316 10.2745 15.0566 0.0000 0.0000 11.6428 1.7503 2.8748 -2.6222 0.0000 0.0000 -4.5062 15.9052 -13.8944 8.5532 0.0000 0.0000 7.6226 -5.3808 -3.3697 10.8051 -8.8050 -24.0324 -29.5832 -4.3308 30.8691 20.1260 0.0000 -6.1193 -0.1290 1.7828 4.1379 32.8623 0.0000 -24.3270 28.7219 29.9693 12.1089 -64.8504 4.4172 -37.6762 -9.6629 0.0000 39.4721 1.9709 20.0677 -5.7271 33.1476 -0.0000 26.2537 2.6084 11.7633 4.3927
 2.9285 37.0265 3.2088 -4.7980 -1.2070 2.2499 12.5001 -8.2443 -5.3562 -5.2678 -0.0000 -0.0000 -7.9343 -20.7546 10.2698 15.0519 -0.0000 0.0000 11.6428 1.7595 2.8757 -2.5988 -0.0000 0.0000 -4.5059 15.9008 -13.9330 8.5243 0.0000 0.0000 7.6509 -5.3757 -3.3631 10.7962 -8.8040 -24.0335 -29.5794 -4.3448 30.8830 20.1344 0.0000 -6.1182 -0.1307 1.8120 4.1263 32.8623 0.0000 -24.3270 28.7061 29.9591 12.1125 -64.8537 4.4439 -37.6809 -9.6783 0.0000 39.4895 1.9587 20.0877 -5.6863 33.1476 -0.0000 26.2537 2.5739 11.7700 4.3930
